<mxfile host="app.diagrams.net" modified="2024-04-20T23:41:55.165Z" agent="Mozilla/5.0 (Windows NT 10.0; Win64; x64) AppleWebKit/537.36 (KHTML, like Gecko) Chrome/124.0.0.0 Safari/537.36" etag="vOq7viy3fzisZuYHbik-" version="24.2.7" type="github">
  <diagram name="Página-1" id="y5wHsESiTLNrKdwhvI0i">
    <mxGraphModel dx="1463" dy="652" grid="1" gridSize="10" guides="1" tooltips="1" connect="1" arrows="1" fold="1" page="1" pageScale="1" pageWidth="850" pageHeight="1100" math="0" shadow="0">
      <root>
        <mxCell id="0" />
        <mxCell id="1" parent="0" />
        <mxCell id="jgxpdOFCuRKgA4mCkLOe-1" value="APARTAMENTO" style="whiteSpace=wrap;html=1;align=center;" vertex="1" parent="1">
          <mxGeometry x="40" y="280" width="100" height="40" as="geometry" />
        </mxCell>
        <mxCell id="jgxpdOFCuRKgA4mCkLOe-2" value="PERSONA" style="whiteSpace=wrap;html=1;align=center;" vertex="1" parent="1">
          <mxGeometry x="700" y="280" width="100" height="40" as="geometry" />
        </mxCell>
        <mxCell id="jgxpdOFCuRKgA4mCkLOe-3" value="ALQUILA" style="shape=rhombus;perimeter=rhombusPerimeter;whiteSpace=wrap;html=1;align=center;" vertex="1" parent="1">
          <mxGeometry x="360" y="270" width="120" height="60" as="geometry" />
        </mxCell>
        <mxCell id="jgxpdOFCuRKgA4mCkLOe-4" value="" style="endArrow=none;html=1;rounded=0;exitX=1;exitY=0.5;exitDx=0;exitDy=0;entryX=0;entryY=0.5;entryDx=0;entryDy=0;" edge="1" parent="1" source="jgxpdOFCuRKgA4mCkLOe-1" target="jgxpdOFCuRKgA4mCkLOe-3">
          <mxGeometry relative="1" as="geometry">
            <mxPoint x="180" y="320" as="sourcePoint" />
            <mxPoint x="340" y="320" as="targetPoint" />
          </mxGeometry>
        </mxCell>
        <mxCell id="jgxpdOFCuRKgA4mCkLOe-5" value="" style="endArrow=none;html=1;rounded=0;exitX=1;exitY=0.5;exitDx=0;exitDy=0;entryX=0;entryY=0.5;entryDx=0;entryDy=0;" edge="1" parent="1" source="jgxpdOFCuRKgA4mCkLOe-3" target="jgxpdOFCuRKgA4mCkLOe-2">
          <mxGeometry relative="1" as="geometry">
            <mxPoint x="170" y="450" as="sourcePoint" />
            <mxPoint x="330" y="450" as="targetPoint" />
          </mxGeometry>
        </mxCell>
        <mxCell id="jgxpdOFCuRKgA4mCkLOe-6" value="(1,1)" style="text;strokeColor=none;align=center;fillColor=none;html=1;verticalAlign=middle;whiteSpace=wrap;rounded=0;" vertex="1" parent="1">
          <mxGeometry x="140" y="270" width="60" height="30" as="geometry" />
        </mxCell>
        <mxCell id="jgxpdOFCuRKgA4mCkLOe-7" value="(1,1)" style="text;strokeColor=none;align=center;fillColor=none;html=1;verticalAlign=middle;whiteSpace=wrap;rounded=0;" vertex="1" parent="1">
          <mxGeometry x="630" y="270" width="60" height="30" as="geometry" />
        </mxCell>
        <mxCell id="jgxpdOFCuRKgA4mCkLOe-8" value="(1,1)" style="text;strokeColor=none;align=center;fillColor=none;html=1;verticalAlign=middle;whiteSpace=wrap;rounded=0;" vertex="1" parent="1">
          <mxGeometry x="390" y="230" width="60" height="30" as="geometry" />
        </mxCell>
        <mxCell id="jgxpdOFCuRKgA4mCkLOe-9" value="numero_apt" style="ellipse;whiteSpace=wrap;html=1;align=center;fontStyle=4;" vertex="1" parent="1">
          <mxGeometry x="30" y="360" width="100" height="40" as="geometry" />
        </mxCell>
        <mxCell id="jgxpdOFCuRKgA4mCkLOe-10" value="cantidad_cuartos" style="ellipse;whiteSpace=wrap;html=1;align=center;" vertex="1" parent="1">
          <mxGeometry x="140" y="360" width="100" height="40" as="geometry" />
        </mxCell>
        <mxCell id="jgxpdOFCuRKgA4mCkLOe-11" value="estado_alquiler" style="ellipse;whiteSpace=wrap;html=1;align=center;" vertex="1" parent="1">
          <mxGeometry x="30" y="200" width="100" height="40" as="geometry" />
        </mxCell>
        <mxCell id="jgxpdOFCuRKgA4mCkLOe-12" value="dirección" style="ellipse;whiteSpace=wrap;html=1;align=center;" vertex="1" parent="1">
          <mxGeometry x="170" y="200" width="100" height="40" as="geometry" />
        </mxCell>
        <mxCell id="jgxpdOFCuRKgA4mCkLOe-13" value="" style="endArrow=none;html=1;rounded=0;entryX=0;entryY=1;entryDx=0;entryDy=0;exitX=0;exitY=0;exitDx=0;exitDy=0;" edge="1" parent="1" source="jgxpdOFCuRKgA4mCkLOe-1" target="jgxpdOFCuRKgA4mCkLOe-11">
          <mxGeometry relative="1" as="geometry">
            <mxPoint x="40" y="270" as="sourcePoint" />
            <mxPoint x="50" y="250" as="targetPoint" />
          </mxGeometry>
        </mxCell>
        <mxCell id="jgxpdOFCuRKgA4mCkLOe-14" value="" style="endArrow=none;html=1;rounded=0;exitX=0.75;exitY=0;exitDx=0;exitDy=0;entryX=0;entryY=0.5;entryDx=0;entryDy=0;" edge="1" parent="1" source="jgxpdOFCuRKgA4mCkLOe-1" target="jgxpdOFCuRKgA4mCkLOe-12">
          <mxGeometry relative="1" as="geometry">
            <mxPoint x="130" y="440" as="sourcePoint" />
            <mxPoint x="290" y="440" as="targetPoint" />
          </mxGeometry>
        </mxCell>
        <mxCell id="jgxpdOFCuRKgA4mCkLOe-15" value="" style="endArrow=none;html=1;rounded=0;exitX=0.25;exitY=1;exitDx=0;exitDy=0;entryX=0;entryY=0;entryDx=0;entryDy=0;" edge="1" parent="1" source="jgxpdOFCuRKgA4mCkLOe-1" target="jgxpdOFCuRKgA4mCkLOe-9">
          <mxGeometry relative="1" as="geometry">
            <mxPoint x="60" y="470" as="sourcePoint" />
            <mxPoint x="220" y="470" as="targetPoint" />
          </mxGeometry>
        </mxCell>
        <mxCell id="jgxpdOFCuRKgA4mCkLOe-16" value="" style="endArrow=none;html=1;rounded=0;exitX=0.75;exitY=1;exitDx=0;exitDy=0;entryX=0;entryY=0;entryDx=0;entryDy=0;" edge="1" parent="1" source="jgxpdOFCuRKgA4mCkLOe-1" target="jgxpdOFCuRKgA4mCkLOe-10">
          <mxGeometry relative="1" as="geometry">
            <mxPoint x="130" y="440" as="sourcePoint" />
            <mxPoint x="290" y="440" as="targetPoint" />
          </mxGeometry>
        </mxCell>
        <mxCell id="jgxpdOFCuRKgA4mCkLOe-17" value="cédula" style="ellipse;whiteSpace=wrap;html=1;align=center;" vertex="1" parent="1">
          <mxGeometry x="570" y="320" width="100" height="40" as="geometry" />
        </mxCell>
        <mxCell id="jgxpdOFCuRKgA4mCkLOe-18" value="prime_nombre" style="ellipse;whiteSpace=wrap;html=1;align=center;" vertex="1" parent="1">
          <mxGeometry x="660" y="140" width="100" height="40" as="geometry" />
        </mxCell>
        <mxCell id="jgxpdOFCuRKgA4mCkLOe-19" value="segundo_nombre" style="ellipse;whiteSpace=wrap;html=1;align=center;" vertex="1" parent="1">
          <mxGeometry x="740" y="370" width="100" height="40" as="geometry" />
        </mxCell>
        <mxCell id="jgxpdOFCuRKgA4mCkLOe-20" value="apellido" style="ellipse;whiteSpace=wrap;html=1;align=center;" vertex="1" parent="1">
          <mxGeometry x="590" y="200" width="100" height="40" as="geometry" />
        </mxCell>
        <mxCell id="jgxpdOFCuRKgA4mCkLOe-21" value="teléfono" style="ellipse;whiteSpace=wrap;html=1;align=center;" vertex="1" parent="1">
          <mxGeometry x="730" y="190" width="100" height="40" as="geometry" />
        </mxCell>
        <mxCell id="jgxpdOFCuRKgA4mCkLOe-22" value="email" style="ellipse;whiteSpace=wrap;html=1;align=center;" vertex="1" parent="1">
          <mxGeometry x="620" y="390" width="110" height="40" as="geometry" />
        </mxCell>
        <mxCell id="jgxpdOFCuRKgA4mCkLOe-23" value="" style="endArrow=none;html=1;rounded=0;entryX=0;entryY=1;entryDx=0;entryDy=0;exitX=0.5;exitY=0;exitDx=0;exitDy=0;" edge="1" parent="1" source="jgxpdOFCuRKgA4mCkLOe-17" target="jgxpdOFCuRKgA4mCkLOe-2">
          <mxGeometry relative="1" as="geometry">
            <mxPoint x="480" y="430" as="sourcePoint" />
            <mxPoint x="640" y="430" as="targetPoint" />
          </mxGeometry>
        </mxCell>
        <mxCell id="jgxpdOFCuRKgA4mCkLOe-24" value="" style="endArrow=none;html=1;rounded=0;exitX=0;exitY=0;exitDx=0;exitDy=0;entryX=0.5;entryY=1;entryDx=0;entryDy=0;" edge="1" parent="1" source="jgxpdOFCuRKgA4mCkLOe-2" target="jgxpdOFCuRKgA4mCkLOe-20">
          <mxGeometry relative="1" as="geometry">
            <mxPoint x="530" y="480" as="sourcePoint" />
            <mxPoint x="690" y="480" as="targetPoint" />
          </mxGeometry>
        </mxCell>
        <mxCell id="jgxpdOFCuRKgA4mCkLOe-25" value="" style="endArrow=none;html=1;rounded=0;exitX=0.25;exitY=0;exitDx=0;exitDy=0;entryX=0.5;entryY=1;entryDx=0;entryDy=0;" edge="1" parent="1" source="jgxpdOFCuRKgA4mCkLOe-2" target="jgxpdOFCuRKgA4mCkLOe-18">
          <mxGeometry relative="1" as="geometry">
            <mxPoint x="460" y="430" as="sourcePoint" />
            <mxPoint x="620" y="430" as="targetPoint" />
          </mxGeometry>
        </mxCell>
        <mxCell id="jgxpdOFCuRKgA4mCkLOe-26" value="" style="endArrow=none;html=1;rounded=0;exitX=0.5;exitY=0;exitDx=0;exitDy=0;entryX=0.5;entryY=1;entryDx=0;entryDy=0;" edge="1" parent="1" source="jgxpdOFCuRKgA4mCkLOe-2" target="jgxpdOFCuRKgA4mCkLOe-21">
          <mxGeometry relative="1" as="geometry">
            <mxPoint x="650" y="440" as="sourcePoint" />
            <mxPoint x="810" y="440" as="targetPoint" />
          </mxGeometry>
        </mxCell>
        <mxCell id="jgxpdOFCuRKgA4mCkLOe-27" value="" style="endArrow=none;html=1;rounded=0;entryX=0.25;entryY=1;entryDx=0;entryDy=0;exitX=0.5;exitY=0;exitDx=0;exitDy=0;" edge="1" parent="1" source="jgxpdOFCuRKgA4mCkLOe-22" target="jgxpdOFCuRKgA4mCkLOe-2">
          <mxGeometry relative="1" as="geometry">
            <mxPoint x="520" y="380" as="sourcePoint" />
            <mxPoint x="680" y="380" as="targetPoint" />
          </mxGeometry>
        </mxCell>
        <mxCell id="jgxpdOFCuRKgA4mCkLOe-28" value="" style="endArrow=none;html=1;rounded=0;exitX=0.75;exitY=1;exitDx=0;exitDy=0;entryX=0.5;entryY=0;entryDx=0;entryDy=0;" edge="1" parent="1" source="jgxpdOFCuRKgA4mCkLOe-2" target="jgxpdOFCuRKgA4mCkLOe-19">
          <mxGeometry relative="1" as="geometry">
            <mxPoint x="570" y="500" as="sourcePoint" />
            <mxPoint x="730" y="500" as="targetPoint" />
          </mxGeometry>
        </mxCell>
      </root>
    </mxGraphModel>
  </diagram>
</mxfile>
